<svg fill="none" height="48" viewBox="0 0 48 48" width="48" xmlns="http://www.w3.org/2000/svg"><path d="m0 0h48v48h-48z" fill="#fff" fill-opacity=".01"/><g stroke="#000" stroke-linecap="round" stroke-linejoin="round" stroke-width="4"><path d="m34 6.67564c5.978 3.45806 10 9.92156 10 17.32436m-10-17.32436v7.32436m0-7.32436h7.3244m0 27.32436c-3.4581 5.978-9.9216 10-17.3244 10m17.3244-10h-7.3244m7.3244 0v7.3244m-27.3244 0c-5.97801-3.4581-10-9.9216-10-17.3244m10 17.3244v-7.3244m0 7.3244h-7.32436m0-27.3244c3.45806-5.97801 9.92156-10 17.32436-10m-17.32436 10h7.32436m-7.32436 0v-7.32436"/><path d="m41.3244 34c-3.4581 5.978-9.9216 10-17.3244 10m17.3244-10h-7.3244m7.3244 0v7.3244"/><path d="m14 41.3244c-5.97801-3.4581-10-9.9216-10-17.3244m10 17.3244v-7.3244m0 7.3244h-7.32436"/><path d="m6.67566 14c3.45814-5.97801 9.92154-10 17.32434-10m-17.32434 10h7.32434m-7.32434 0v-7.32436"/><path d="m34 6.67578c5.978 3.45812 10 9.92152 10 17.32432m-10-17.32432v7.32432m0-7.32432h7.3244"/></g></svg>